<svg id="svg" version="1.1" xmlns="http://www.w3.org/2000/svg" xmlns:xlink="http://www.w3.org/1999/xlink" width="400" height="398.8338192419825" viewBox="0, 0, 400,398.8338192419825"><g id="svgg"><path id="path0" d="M168.463 49.485 C 166.597 49.643,164.261 49.966,163.273 50.203 C 162.285 50.440,160.458 50.838,159.212 51.087 C 157.967 51.337,156.722 51.813,156.445 52.147 C 156.168 52.480,155.294 53.083,154.502 53.487 C 153.710 53.891,152.351 55.048,151.481 56.058 C 150.612 57.067,149.021 58.824,147.946 59.962 C 146.464 61.531,145.854 62.566,145.421 64.249 C 145.106 65.469,144.609 66.841,144.316 67.298 C 143.366 68.778,142.823 75.679,142.971 84.387 L 143.114 92.727 141.987 93.569 C 140.867 94.406,140.669 94.412,110.699 94.530 C 84.678 94.633,80.311 94.734,78.891 95.266 C 77.986 95.606,76.294 96.219,75.132 96.630 C 70.620 98.223,61.477 106.349,61.477 108.765 C 61.477 109.028,61.048 109.645,60.523 110.138 C 58.384 112.148,58.483 107.154,58.483 212.575 C 58.483 289.645,58.589 310.830,58.984 312.505 C 59.581 315.036,61.647 319.504,62.962 321.106 C 63.479 321.736,64.155 322.857,64.463 323.596 C 66.662 328.859,77.002 336.257,85.230 338.455 L 89.222 339.521 202.609 339.521 L 315.996 339.521 317.570 338.224 C 318.436 337.510,319.307 336.926,319.506 336.926 C 321.290 336.926,328.263 332.404,331.530 329.129 C 332.851 327.804,334.426 326.408,335.030 326.025 C 335.634 325.643,336.128 325.001,336.128 324.598 C 336.128 324.195,336.743 323.088,337.494 322.138 C 338.246 321.188,338.980 319.770,339.125 318.988 C 339.270 318.205,339.813 316.756,340.331 315.768 C 340.850 314.780,341.671 311.996,342.156 309.581 L 343.037 305.190 343.154 217.964 C 343.225 165.082,343.120 128.465,342.888 124.964 C 342.382 117.351,341.415 111.280,340.637 110.836 C 340.308 110.647,339.626 109.562,339.123 108.424 C 337.087 103.820,330.190 98.339,323.553 96.050 L 319.960 94.810 290.929 94.611 L 261.898 94.411 261.018 93.531 C 260.154 92.667,260.136 92.426,260.040 80.644 L 259.943 68.638 257.848 64.359 C 255.505 59.572,252.663 56.199,249.301 54.214 C 248.204 53.566,246.763 52.697,246.100 52.283 C 245.437 51.869,243.191 51.043,241.110 50.447 L 237.325 49.364 204.591 49.281 C 186.587 49.236,170.329 49.327,168.463 49.485 M240.062 65.685 C 243.511 66.549,244.654 67.052,244.882 67.807 C 245.932 71.278,246.467 90.824,245.559 92.521 C 244.396 94.695,246.173 94.611,201.378 94.611 C 156.411 94.611,157.595 94.668,157.076 92.467 C 156.417 89.669,156.645 74.342,157.391 71.257 C 158.819 65.355,156.140 65.742,197.405 65.475 C 215.848 65.356,232.439 65.216,234.274 65.164 C 236.266 65.108,238.597 65.317,240.062 65.685 M322.954 112.424 C 325.231 113.463,325.467 113.766,326.816 117.379 L 327.928 120.359 327.815 212.117 L 327.703 303.876 326.681 307.718 C 324.777 314.869,319.346 320.732,313.313 322.148 C 309.141 323.128,96.027 323.488,89.797 322.526 C 84.878 321.767,81.117 319.797,79.180 316.966 C 78.654 316.198,77.686 314.850,77.028 313.972 C 72.730 308.232,73.079 317.212,73.052 211.776 C 73.027 111.703,72.911 117.181,75.116 114.378 C 77.161 111.778,67.691 111.999,187.625 111.754 C 330.577 111.462,320.738 111.413,322.954 112.424 M261.207 139.133 C 249.839 143.531,245.123 150.208,245.101 161.934 C 245.091 167.605,244.462 169.451,242.013 170.997 C 241.155 171.538,240.019 172.493,239.488 173.118 C 238.505 174.276,234.293 177.609,232.809 178.403 C 232.359 178.644,231.890 179.158,231.767 179.546 C 231.644 179.933,230.060 181.460,228.247 182.940 C 226.434 184.420,223.803 186.573,222.401 187.725 C 220.999 188.878,219.180 190.359,218.360 191.018 C 215.386 193.405,210.920 197.296,208.278 199.801 C 205.043 202.868,204.192 203.102,198.782 202.412 C 192.665 201.633,188.606 202.123,184.895 204.089 C 180.994 206.156,179.109 206.081,175.964 203.734 C 174.803 202.867,172.992 201.660,171.940 201.053 C 170.889 200.445,169.440 199.431,168.720 198.799 C 168.001 198.168,166.526 197.301,165.443 196.872 C 163.650 196.164,161.779 195.060,157.598 192.244 C 155.676 190.948,154.263 188.115,153.903 184.830 C 152.302 170.233,142.262 162.246,128.311 164.471 C 123.361 165.261,121.072 166.776,116.436 172.331 L 113.310 176.075 112.750 179.754 C 111.048 190.931,113.267 198.163,119.941 203.194 C 120.961 203.962,122.343 205.026,123.013 205.558 C 126.831 208.589,141.760 208.481,144.311 205.404 C 146.361 202.933,151.342 202.965,154.232 205.468 C 154.943 206.083,158.073 208.024,161.189 209.780 C 164.304 211.537,166.945 213.249,167.058 213.585 C 167.171 213.921,168.011 214.460,168.925 214.782 C 171.855 215.817,172.197 216.690,172.484 223.867 C 172.658 228.210,172.927 230.570,173.357 231.537 C 174.171 233.367,173.581 235.180,171.344 237.721 C 169.815 239.459,169.047 240.101,164.428 243.513 C 161.553 245.636,159.116 247.707,154.210 252.196 C 148.878 257.074,150.699 256.342,143.114 256.657 L 136.727 256.922 134.531 258.352 C 127.115 263.185,124.498 269.572,126.375 278.258 C 127.706 284.420,135.461 290.392,142.116 290.380 C 152.797 290.362,160.582 281.204,158.730 270.836 C 157.662 264.858,158.180 263.576,163.091 260.058 C 164.838 258.806,167.435 256.756,168.862 255.502 C 170.289 254.247,171.750 253.058,172.108 252.858 C 172.466 252.658,174.308 251.058,176.201 249.301 C 181.808 244.099,182.854 243.754,189.297 244.990 C 193.623 245.819,198.340 245.350,202.349 243.693 C 206.847 241.834,208.472 242.579,216.367 250.118 C 220.096 253.679,228.324 260.762,229.806 261.687 C 233.267 263.847,234.544 267.142,233.187 270.415 C 230.647 276.543,234.027 287.007,240.703 293.683 C 243.645 296.624,248.122 298.259,253.913 298.506 L 258.124 298.686 261.697 297.012 C 265.879 295.052,269.709 291.612,271.259 288.423 C 271.792 287.325,272.639 285.920,273.140 285.300 C 274.019 284.213,274.052 283.894,274.052 276.517 L 274.052 268.862 272.455 265.798 C 267.784 256.834,255.270 251.527,247.319 255.139 C 246.433 255.542,245.257 255.875,244.705 255.879 C 242.958 255.895,233.130 248.495,226.687 242.315 C 223.916 239.657,221.889 237.930,219.746 236.399 C 215.713 233.519,214.522 231.134,215.183 227.264 C 215.752 223.943,215.493 218.229,214.662 215.747 C 213.525 212.349,214.709 209.442,218.210 207.041 C 218.894 206.572,221.199 204.750,223.333 202.994 C 225.466 201.238,228.137 199.089,229.269 198.220 C 230.401 197.350,232.053 195.913,232.940 195.025 C 233.828 194.137,235.537 192.696,236.738 191.823 C 237.939 190.949,240.194 189.063,241.748 187.632 C 244.619 184.989,248.298 182.024,250.329 180.716 C 251.428 180.008,251.491 180.014,253.608 181.015 C 254.795 181.577,256.024 182.036,256.340 182.036 C 256.656 182.036,258.525 182.710,260.493 183.533 C 265.300 185.544,272.118 185.762,274.850 183.993 C 275.729 183.424,277.126 182.638,277.957 182.246 C 287.284 177.844,293.445 160.971,288.575 153.167 C 283.352 144.797,281.589 143.103,274.603 139.741 C 270.355 137.696,265.492 137.476,261.207 139.133 M272.277 151.233 C 282.833 157.971,278.803 173.075,266.637 172.371 C 258.020 171.872,253.611 164.557,257.220 156.746 C 260.002 150.724,267.296 148.053,272.277 151.233 M137.593 176.508 C 141.781 178.860,143.221 181.898,142.798 187.493 C 142.212 195.245,134.085 199.140,127.455 194.848 C 116.320 187.639,126.055 170.030,137.593 176.508 M199.294 214.277 C 200.442 214.925,202.103 216.307,202.986 217.349 L 204.591 219.243 204.591 223.528 C 204.591 227.781,204.580 227.830,203.155 229.975 C 199.762 235.082,191.192 236.049,186.781 231.823 C 181.006 226.290,181.757 220.242,188.940 214.425 C 191.382 212.448,195.942 212.383,199.294 214.277 M258.625 266.836 C 268.247 271.812,264.744 286.680,253.966 286.609 C 244.768 286.549,239.938 277.198,245.202 269.641 C 247.608 266.187,254.559 264.734,258.625 266.836 " stroke="none" fill="#2191e3" fill-rule="evenodd"></path><path id="path1" d="M0.000 199.601 L 0.000 399.202 200.000 399.202 L 400.000 399.202 400.000 199.601 L 400.000 0.000 200.000 0.000 L 0.000 0.000 0.000 199.601 M239.920 47.115 C 241.794 47.355,243.810 47.940,245.309 48.679 C 246.627 49.329,248.333 50.142,249.102 50.487 C 252.937 52.208,257.600 56.428,258.709 59.181 C 258.997 59.895,259.648 61.035,260.156 61.715 C 261.793 63.907,262.583 69.278,262.898 80.361 C 263.136 88.712,263.284 90.391,263.843 91.081 C 265.119 92.657,268.973 92.847,295.010 92.623 C 308.293 92.509,319.790 92.548,320.559 92.711 C 321.327 92.873,323.334 93.287,325.018 93.629 C 326.702 93.971,328.295 94.512,328.560 94.830 C 328.824 95.149,329.338 95.409,329.703 95.409 C 331.684 95.409,339.714 102.510,340.597 105.043 C 340.855 105.783,341.570 106.504,342.532 106.995 C 344.457 107.977,344.698 108.368,344.741 110.579 C 344.760 111.567,344.984 113.453,345.238 114.770 C 345.579 116.541,345.703 142.087,345.714 212.680 C 345.729 314.711,345.783 311.636,343.922 313.772 C 343.635 314.102,343.272 315.151,343.116 316.104 C 342.780 318.150,339.890 324.112,339.083 324.421 C 338.775 324.540,338.163 325.449,337.724 326.442 C 336.747 328.650,334.494 331.224,332.458 332.458 C 331.622 332.964,330.938 333.532,330.938 333.720 C 330.938 334.147,326.463 337.225,325.075 337.753 C 324.510 337.968,323.511 338.526,322.855 338.993 C 322.198 339.460,320.021 340.398,318.016 341.078 L 314.371 342.313 202.840 342.422 C 131.026 342.493,90.653 342.392,89.467 342.140 C 88.454 341.924,85.895 341.395,83.782 340.964 C 78.501 339.886,72.260 336.689,68.484 333.128 C 67.673 332.363,66.867 331.737,66.694 331.737 C 66.521 331.737,65.803 330.704,65.099 329.441 C 64.395 328.179,63.517 326.607,63.147 325.948 C 62.777 325.289,62.259 324.612,61.995 324.442 C 60.376 323.401,57.910 318.638,57.299 315.369 C 56.950 313.503,56.447 311.347,56.181 310.579 C 55.381 308.264,55.272 118.432,56.069 115.320 C 56.394 114.050,56.784 111.808,56.935 110.336 C 57.204 107.703,57.537 107.065,59.318 105.764 C 59.751 105.448,60.459 104.645,60.891 103.978 C 62.012 102.249,69.343 95.409,70.074 95.409 C 70.411 95.409,71.085 95.151,71.571 94.835 C 74.762 92.764,76.520 92.640,105.760 92.422 C 140.213 92.166,140.294 92.162,140.616 90.718 C 140.702 90.334,140.690 88.095,140.589 85.741 C 140.288 78.678,141.249 65.040,142.116 64.072 C 142.509 63.633,143.158 62.220,143.559 60.932 C 144.084 59.242,144.652 58.312,145.597 57.591 C 146.317 57.041,146.914 56.389,146.923 56.140 C 146.953 55.318,149.519 52.755,150.579 52.489 C 151.152 52.346,152.029 51.794,152.527 51.264 C 153.025 50.733,153.635 50.299,153.883 50.299 C 154.131 50.299,155.058 49.767,155.943 49.116 C 157.564 47.924,160.196 47.309,165.070 46.984 C 170.073 46.650,237.209 46.767,239.920 47.115 M163.655 68.142 C 162.890 68.262,162.304 68.910,161.285 70.763 L 159.931 73.226 159.893 80.625 C 159.837 91.396,159.920 91.616,164.307 92.269 C 167.242 92.706,234.599 92.832,237.902 92.406 C 241.255 91.974,241.411 91.889,242.338 89.973 C 243.160 88.276,243.235 87.528,243.273 80.690 L 243.313 73.253 242.073 71.058 C 241.391 69.850,240.403 68.640,239.877 68.369 C 238.973 67.902,166.576 67.687,163.655 68.142 M162.991 79.741 C 163.355 81.587,162.916 82.970,162.038 82.741 C 160.743 82.402,161.171 78.643,162.505 78.643 C 162.653 78.643,162.872 79.137,162.991 79.741 M189.046 114.081 C 188.986 114.141,164.794 114.257,135.287 114.337 C 87.015 114.469,81.517 114.548,80.439 115.124 C 79.780 115.476,79.032 115.765,78.775 115.766 C 78.198 115.769,76.737 118.084,76.199 119.846 C 75.720 121.415,75.199 290.928,75.643 300.422 C 75.858 304.990,76.085 306.767,76.512 307.193 C 76.830 307.511,77.366 308.580,77.702 309.569 C 78.677 312.429,82.912 316.538,86.826 318.423 L 90.020 319.960 199.202 320.160 C 284.378 320.315,309.034 320.252,311.344 319.869 C 314.127 319.409,317.365 317.874,317.365 317.015 C 317.365 316.828,318.367 315.618,319.591 314.326 C 320.896 312.949,322.424 310.737,323.284 308.982 L 324.750 305.988 324.853 213.457 C 324.954 121.903,324.947 120.907,324.163 119.186 C 323.038 116.717,321.554 115.097,319.924 114.559 C 318.692 114.152,189.446 113.681,189.046 114.081 M275.449 137.047 C 278.675 138.135,280.005 138.833,282.383 140.688 C 283.672 141.693,284.873 142.515,285.051 142.515 C 285.229 142.515,285.502 142.919,285.656 143.413 C 285.811 143.907,286.963 145.411,288.217 146.755 C 290.960 149.697,291.259 150.642,291.899 158.410 C 292.712 168.279,291.219 174.240,286.870 178.482 C 282.527 182.718,282.072 183.110,279.519 184.810 C 275.202 187.686,263.350 188.248,257.285 185.865 C 251.035 183.408,251.463 183.504,250.820 184.422 C 250.503 184.874,249.403 185.672,248.375 186.194 C 247.325 186.728,245.936 187.909,245.203 188.891 C 244.486 189.852,243.182 191.081,242.305 191.623 C 241.428 192.165,240.612 192.920,240.491 193.301 C 240.370 193.684,239.579 194.180,238.727 194.410 C 237.878 194.639,236.434 195.451,235.520 196.215 C 234.605 196.980,233.514 197.605,233.096 197.605 C 232.674 197.605,232.335 197.881,232.335 198.226 C 232.335 199.031,226.646 204.437,225.104 205.097 C 224.454 205.376,223.824 205.856,223.706 206.165 C 223.587 206.474,222.174 207.830,220.565 209.177 C 217.176 212.014,216.933 212.623,217.829 216.037 C 218.303 217.845,218.502 220.379,218.527 224.950 L 218.563 231.337 220.850 232.859 C 222.108 233.696,223.427 234.863,223.780 235.454 C 224.384 236.462,227.552 238.723,228.363 238.723 C 228.566 238.723,229.001 239.367,229.331 240.156 C 229.660 240.944,230.285 241.682,230.719 241.795 C 231.153 241.909,231.868 242.611,232.308 243.356 C 232.747 244.101,233.303 244.711,233.543 244.711 C 233.784 244.711,234.823 245.355,235.852 246.142 C 236.882 246.930,238.308 247.819,239.022 248.118 C 239.736 248.417,240.319 248.848,240.319 249.076 C 240.319 249.345,241.405 249.416,243.413 249.279 L 246.507 249.067 245.139 249.783 C 241.530 251.672,243.898 252.511,251.098 251.894 C 257.711 251.327,263.523 252.403,266.107 254.672 C 266.869 255.341,267.631 255.888,267.799 255.888 C 268.364 255.888,272.281 259.969,272.927 261.230 C 273.278 261.915,273.962 262.950,274.446 263.531 C 275.028 264.229,275.412 265.378,275.579 266.924 C 275.718 268.210,276.194 270.207,276.638 271.362 C 277.684 274.082,277.647 275.923,276.447 281.038 C 275.906 283.343,275.460 285.805,275.456 286.508 C 275.449 287.838,274.725 289.820,274.247 289.820 C 274.096 289.820,272.750 291.304,271.255 293.116 C 266.357 299.060,264.422 300.001,255.888 300.593 C 250.153 300.990,245.530 300.290,241.412 298.398 C 239.109 297.341,234.252 291.191,233.081 287.851 C 232.884 287.287,232.215 286.537,231.596 286.184 L 230.469 285.541 230.217 278.571 C 230.055 274.096,230.117 271.051,230.389 270.066 C 231.111 267.450,228.474 262.675,226.306 262.675 C 226.101 262.675,224.724 261.495,223.246 260.053 C 221.768 258.612,219.930 257.100,219.162 256.694 C 218.393 256.288,216.186 254.416,214.256 252.535 C 212.326 250.653,210.386 248.920,209.945 248.684 C 209.504 248.448,208.984 247.834,208.788 247.320 C 208.135 245.602,203.064 245.649,201.112 247.392 C 199.542 248.793,190.517 248.994,187.986 247.685 C 185.196 246.242,183.747 246.815,179.090 251.200 C 177.966 252.259,176.238 253.603,175.250 254.188 C 173.431 255.264,169.095 258.626,167.265 260.379 C 166.717 260.905,165.418 261.757,164.379 262.272 C 161.640 263.629,160.944 265.561,161.668 269.793 C 162.746 276.092,162.485 278.250,160.067 283.043 C 156.607 289.902,147.624 294.602,141.118 292.957 C 140.240 292.735,138.443 292.390,137.126 292.190 C 133.440 291.630,133.124 291.514,131.497 290.123 C 126.997 286.274,125.911 285.042,125.181 282.959 C 124.772 281.793,124.059 280.420,123.596 279.908 C 122.293 278.467,122.318 267.723,123.629 265.950 C 124.109 265.300,124.804 263.846,125.173 262.719 C 125.854 260.637,127.508 258.920,129.866 257.845 C 130.456 257.577,130.938 257.212,130.938 257.036 C 130.938 255.899,137.360 254.239,142.965 253.927 C 148.532 253.618,148.518 253.626,155.289 247.082 C 157.814 244.641,160.591 242.279,161.459 241.832 C 162.327 241.384,163.354 240.616,163.741 240.124 C 164.127 239.632,164.982 239.007,165.639 238.735 C 166.620 238.328,169.221 235.447,170.564 233.280 C 170.731 233.009,170.506 231.871,170.065 230.751 C 169.137 228.398,169.088 227.377,169.723 223.660 C 170.294 220.311,168.890 216.937,166.626 216.218 C 166.166 216.072,165.597 215.530,165.361 215.012 C 165.038 214.302,164.488 214.005,163.116 213.800 C 162.004 213.633,160.558 212.993,159.392 212.151 C 158.343 211.394,157.216 210.654,156.886 210.506 C 156.557 210.359,155.749 209.838,155.090 209.348 C 154.431 208.859,152.766 207.889,151.389 207.193 L 148.886 205.928 146.399 207.311 C 137.995 211.981,131.842 212.193,121.538 208.168 C 112.353 204.580,106.461 190.890,109.689 180.639 C 110.173 179.102,110.847 176.682,111.187 175.262 C 111.526 173.842,112.113 172.207,112.489 171.628 C 112.866 171.048,113.751 169.686,114.457 168.599 C 116.740 165.086,118.300 164.000,122.154 163.242 C 123.580 162.961,125.330 162.388,126.043 161.967 C 128.463 160.539,135.936 160.726,139.076 162.292 C 139.714 162.611,141.423 163.068,142.873 163.308 C 144.335 163.550,145.778 164.039,146.114 164.407 C 146.447 164.772,147.749 165.936,149.006 166.995 C 153.230 170.551,156.194 176.855,156.753 183.469 C 157.125 187.864,159.512 190.217,168.217 194.770 C 169.729 195.561,171.146 196.604,171.367 197.088 C 171.588 197.572,172.583 198.352,173.578 198.819 C 174.574 199.287,176.175 200.271,177.137 201.006 C 179.600 202.886,180.894 203.093,182.523 201.868 C 183.243 201.327,184.637 200.752,185.620 200.591 C 186.603 200.430,187.771 200.072,188.215 199.795 C 189.428 199.039,198.137 198.778,200.599 199.423 C 202.891 200.025,204.058 199.488,207.300 196.342 C 208.223 195.447,209.742 194.189,210.676 193.546 C 211.611 192.903,212.375 192.236,212.375 192.064 C 212.375 191.893,213.229 191.155,214.271 190.426 C 215.314 189.697,216.349 188.903,216.571 188.662 C 217.171 188.012,220.810 184.806,222.508 183.433 C 223.323 182.774,224.436 181.799,224.982 181.265 C 225.527 180.732,226.767 179.833,227.737 179.269 C 228.707 178.705,230.586 177.211,231.914 175.948 C 233.241 174.686,234.505 173.653,234.723 173.653 C 234.941 173.653,235.549 172.973,236.073 172.142 C 236.597 171.312,237.980 169.713,239.145 168.590 L 241.264 166.548 241.544 161.975 C 241.707 159.311,242.079 156.836,242.435 156.046 C 242.771 155.301,243.233 153.565,243.461 152.190 C 243.882 149.641,244.010 149.338,246.108 145.884 C 247.893 142.945,251.561 139.546,253.588 138.953 C 254.524 138.679,255.896 138.103,256.638 137.674 C 259.479 136.028,271.263 135.636,275.449 137.047 M264.024 153.439 C 262.538 154.200,261.408 155.081,261.139 155.689 C 260.896 156.238,260.313 157.366,259.844 158.195 C 258.413 160.727,259.007 164.190,261.279 166.561 C 265.048 170.494,271.886 170.202,274.234 166.007 C 274.768 165.053,275.440 164.034,275.726 163.744 C 276.617 162.842,276.372 159.950,275.299 158.701 C 274.777 158.094,274.123 156.907,273.844 156.063 C 273.456 154.887,273.075 154.471,272.211 154.282 C 271.591 154.146,270.442 153.598,269.656 153.065 C 267.849 151.838,267.044 151.892,264.024 153.439 M128.569 179.481 C 124.098 183.243,123.596 186.569,126.887 190.618 C 129.612 193.971,137.010 194.180,138.483 190.946 C 140.659 186.170,140.621 183.801,138.309 180.274 C 136.888 178.105,130.793 177.609,128.569 179.481 M143.613 214.403 C 143.138 214.680,142.690 214.680,142.216 214.403 C 141.646 214.071,141.774 213.996,142.914 213.996 C 144.054 213.996,144.183 214.071,143.613 214.403 M191.061 216.295 C 189.936 216.560,189.508 217.024,189.061 218.469 C 188.941 218.857,188.417 219.336,187.896 219.534 C 185.486 220.450,185.575 225.943,188.039 228.358 C 188.909 229.211,189.621 230.072,189.621 230.272 C 189.621 231.935,196.978 231.474,198.753 229.699 C 199.279 229.173,199.843 228.743,200.005 228.743 C 200.911 228.743,202.025 224.656,201.759 222.307 C 201.209 217.444,196.773 214.952,191.061 216.295 M251.165 268.856 C 246.919 270.181,244.664 275.885,247.298 278.635 C 247.899 279.262,248.281 279.953,248.146 280.171 C 247.647 280.979,248.440 281.840,250.585 282.823 C 253.856 284.320,255.931 284.141,258.034 282.182 C 258.474 281.772,258.966 281.437,259.128 281.437 C 259.290 281.437,259.907 280.446,260.500 279.235 C 263.462 273.180,257.731 266.808,251.165 268.856 " stroke="none" fill="#121c2c" fill-rule="evenodd"></path><path id="path2" d="M163.473 48.337 C 155.556 49.485,146.203 56.670,144.464 62.940 C 144.072 64.355,143.360 66.146,142.881 66.920 C 142.052 68.261,142.001 68.890,141.806 80.075 C 141.656 88.685,141.465 92.008,141.092 92.518 C 140.618 93.166,138.462 93.227,109.513 93.413 L 78.443 93.613 74.531 95.277 C 68.941 97.654,62.877 102.627,60.995 106.376 C 60.551 107.260,59.745 108.575,59.204 109.296 C 56.951 112.301,57.008 109.601,57.030 212.375 C 57.054 318.646,56.895 312.828,59.930 318.762 C 60.828 320.519,61.852 322.283,62.205 322.682 C 62.558 323.081,63.213 324.001,63.659 324.727 C 68.300 332.272,76.906 338.497,84.799 340.020 C 88.199 340.675,95.472 340.719,202.395 340.719 L 316.367 340.719 320.592 338.476 C 328.752 334.145,336.926 327.609,336.926 325.416 C 336.926 325.201,337.555 324.273,338.323 323.353 C 339.092 322.434,339.721 321.473,339.721 321.220 C 339.721 320.966,340.263 319.613,340.925 318.214 C 341.587 316.814,342.416 314.407,342.767 312.863 C 343.118 311.320,343.654 309.462,343.958 308.734 C 344.953 306.354,344.758 120.638,343.756 116.367 C 343.345 114.611,342.893 112.525,342.753 111.731 C 342.614 110.938,342.118 109.950,341.651 109.536 C 341.185 109.121,340.401 107.884,339.911 106.786 C 337.966 102.435,330.957 96.991,324.152 94.546 L 321.557 93.613 292.280 93.413 L 263.003 93.214 262.293 92.336 C 261.659 91.553,261.561 90.184,261.380 79.562 L 261.176 67.665 259.674 64.471 C 255.800 56.236,252.179 52.897,243.513 49.573 L 239.721 48.118 202.794 48.054 C 182.485 48.019,164.790 48.146,163.473 48.337 M241.110 50.447 C 243.191 51.043,245.437 51.869,246.100 52.283 C 246.763 52.697,248.204 53.566,249.301 54.214 C 252.663 56.199,255.505 59.572,257.848 64.359 L 259.943 68.638 260.040 80.644 C 260.136 92.426,260.154 92.667,261.018 93.531 L 261.898 94.411 290.929 94.611 L 319.960 94.810 323.553 96.050 C 330.190 98.339,337.087 103.820,339.123 108.424 C 339.626 109.562,340.308 110.647,340.637 110.836 C 341.415 111.280,342.382 117.351,342.888 124.964 C 343.120 128.465,343.225 165.082,343.154 217.964 L 343.037 305.190 342.156 309.581 C 341.671 311.996,340.850 314.780,340.331 315.768 C 339.813 316.756,339.270 318.205,339.125 318.988 C 338.980 319.770,338.246 321.188,337.494 322.138 C 336.743 323.088,336.128 324.195,336.128 324.598 C 336.128 325.001,335.634 325.643,335.030 326.025 C 334.426 326.408,332.851 327.804,331.530 329.129 C 328.263 332.404,321.290 336.926,319.506 336.926 C 319.307 336.926,318.436 337.510,317.570 338.224 L 315.996 339.521 202.609 339.521 L 89.222 339.521 85.230 338.455 C 77.002 336.257,66.662 328.859,64.463 323.596 C 64.155 322.857,63.479 321.736,62.962 321.106 C 61.647 319.504,59.581 315.036,58.984 312.505 C 58.589 310.830,58.483 289.645,58.483 212.575 C 58.483 107.154,58.384 112.148,60.523 110.138 C 61.048 109.645,61.477 109.028,61.477 108.765 C 61.477 106.349,70.620 98.223,75.132 96.630 C 76.294 96.219,77.986 95.606,78.891 95.266 C 80.311 94.734,84.678 94.633,110.699 94.530 C 140.669 94.412,140.867 94.406,141.987 93.569 L 143.114 92.727 142.971 84.387 C 142.823 75.679,143.366 68.778,144.316 67.298 C 144.609 66.841,145.106 65.469,145.421 64.249 C 145.854 62.566,146.464 61.531,147.946 59.962 C 149.021 58.824,150.612 57.067,151.481 56.058 C 152.351 55.048,153.710 53.891,154.502 53.487 C 155.294 53.083,156.168 52.480,156.445 52.147 C 156.722 51.813,157.967 51.337,159.212 51.087 C 160.458 50.838,162.285 50.440,163.273 50.203 C 166.930 49.326,172.583 49.200,204.591 49.281 L 237.325 49.364 241.110 50.447 M197.405 65.475 C 156.140 65.742,158.819 65.355,157.391 71.257 C 156.645 74.342,156.417 89.669,157.076 92.467 C 157.595 94.668,156.411 94.611,201.378 94.611 C 246.173 94.611,244.396 94.695,245.559 92.521 C 246.467 90.824,245.932 71.278,244.882 67.807 C 244.468 66.437,238.840 65.035,234.274 65.164 C 232.439 65.216,215.848 65.356,197.405 65.475 M241.402 67.435 C 242.681 67.743,243.560 68.192,243.684 68.599 C 244.415 70.994,244.773 77.543,244.516 83.831 C 244.196 91.657,243.885 92.760,241.884 93.160 C 239.835 93.570,161.046 93.457,159.957 93.043 C 158.601 92.527,158.516 91.907,158.452 82.002 C 158.367 68.958,158.763 67.905,164.038 67.168 C 167.952 66.621,239.045 66.866,241.402 67.435 M187.625 111.754 C 67.691 111.999,77.161 111.778,75.116 114.378 C 72.911 117.181,73.027 111.703,73.052 211.776 C 73.079 317.212,72.730 308.232,77.028 313.972 C 77.686 314.850,78.654 316.198,79.180 316.966 C 81.117 319.797,84.878 321.767,89.797 322.526 C 96.027 323.488,309.141 323.128,313.313 322.148 C 319.346 320.732,324.777 314.869,326.681 307.718 L 327.703 303.876 327.815 212.117 L 327.928 120.359 326.816 117.379 C 325.467 113.766,325.231 113.463,322.954 112.424 C 320.738 111.413,330.577 111.462,187.625 111.754 M321.449 113.392 C 323.368 113.925,324.743 115.734,325.532 118.762 C 326.328 121.819,326.481 300.721,325.692 306.026 C 324.963 310.929,318.744 319.077,314.639 320.508 C 312.404 321.287,97.036 321.743,90.704 320.982 C 87.014 320.538,81.396 318.007,80.572 316.416 C 80.331 315.950,79.564 314.850,78.867 313.972 C 77.455 312.193,75.513 308.601,75.004 306.824 C 74.535 305.190,74.553 120.361,75.022 118.397 C 75.480 116.478,77.557 114.321,79.670 113.567 C 81.661 112.858,318.908 112.686,321.449 113.392 M261.078 137.473 C 249.481 140.952,243.513 149.261,243.513 161.928 C 243.513 163.950,243.288 165.808,242.951 166.580 C 242.367 167.914,236.943 173.746,235.188 174.926 C 234.637 175.297,233.095 176.586,231.763 177.791 C 230.431 178.996,227.994 181.081,226.347 182.424 C 217.783 189.412,215.640 191.205,213.411 193.245 C 204.073 201.791,203.857 201.913,199.755 201.001 C 194.505 199.833,186.329 200.972,182.898 203.349 C 181.004 204.661,179.445 204.447,176.930 202.527 C 175.971 201.795,173.972 200.487,172.490 199.621 C 171.007 198.755,169.553 197.757,169.260 197.403 C 168.966 197.050,168.105 196.501,167.345 196.183 C 164.691 195.074,157.299 189.937,156.540 188.674 C 156.072 187.893,155.700 186.276,155.547 184.358 C 155.414 182.671,155.040 180.605,154.718 179.767 C 154.396 178.929,153.946 177.514,153.718 176.623 C 152.848 173.221,147.109 166.592,143.591 164.925 C 141.072 163.732,132.770 162.160,130.782 162.500 C 119.820 164.371,113.109 169.900,111.792 178.143 C 111.557 179.615,111.205 181.239,111.010 181.752 C 110.130 184.066,110.108 187.020,110.944 190.478 C 111.402 192.372,111.776 194.196,111.776 194.532 C 111.776 197.298,117.085 203.838,121.357 206.335 C 128.443 210.477,141.056 210.531,145.150 206.438 C 147.431 204.157,150.215 204.614,155.632 208.160 C 160.093 211.080,163.857 213.174,164.645 213.174 C 164.916 213.174,165.591 213.668,166.146 214.271 C 166.701 214.875,167.715 215.673,168.399 216.045 C 170.771 217.331,171.304 218.800,171.197 223.752 C 171.144 226.168,171.339 229.411,171.629 230.961 C 172.384 234.993,169.424 239.176,163.768 242.073 C 162.345 242.802,157.619 246.735,155.090 249.295 C 149.478 254.976,148.589 255.378,141.118 255.609 C 137.998 255.705,135.840 255.969,134.930 256.366 C 133.084 257.170,127.094 261.724,126.741 262.592 C 121.609 275.212,124.076 284.428,134.003 289.720 C 145.774 295.994,161.789 286.601,160.717 274.052 C 160.605 272.735,160.394 270.298,160.249 268.637 C 159.912 264.787,160.610 263.248,163.537 261.385 C 166.201 259.690,173.084 254.213,178.066 249.823 C 183.225 245.279,183.441 245.223,190.005 246.713 C 192.915 247.374,196.848 246.991,201.760 245.569 C 207.466 243.917,208.211 244.289,217.495 253.419 C 218.235 254.147,219.562 255.265,220.444 255.904 C 221.326 256.542,223.149 258.059,224.497 259.274 C 225.844 260.489,227.754 262.067,228.743 262.780 C 231.594 264.840,232.603 267.253,231.721 269.907 C 230.382 273.939,231.051 280.802,233.234 285.429 C 238.350 296.273,243.198 299.563,254.092 299.588 L 260.080 299.601 263.273 297.937 C 269.269 294.813,274.344 288.365,275.042 282.983 C 276.012 275.513,275.156 266.460,273.268 264.216 C 272.711 263.554,272.255 262.818,272.255 262.581 C 272.255 262.343,270.928 260.871,269.305 259.310 C 263.709 253.929,257.482 251.979,249.708 253.174 C 245.137 253.877,243.450 253.812,242.250 252.886 C 241.687 252.451,239.540 250.813,237.479 249.245 C 233.023 245.854,228.865 242.269,228.067 241.130 C 227.751 240.678,226.830 239.967,226.022 239.550 C 225.213 239.133,223.879 237.980,223.057 236.988 C 222.235 235.996,220.864 234.791,220.010 234.311 C 217.664 232.993,216.578 230.783,217.005 228.199 C 217.576 224.742,217.306 219.613,216.403 216.766 C 215.045 212.490,215.310 211.477,218.440 208.982 C 219.542 208.104,221.300 206.667,222.348 205.788 C 223.395 204.910,225.545 203.114,227.125 201.796 C 229.863 199.514,232.142 197.506,234.331 195.447 C 234.880 194.931,235.778 194.283,236.327 194.007 C 237.753 193.290,244.221 188.037,244.467 187.397 C 244.580 187.102,245.444 186.383,246.388 185.800 C 247.332 185.216,248.839 184.031,249.738 183.166 L 251.372 181.593 253.291 182.613 C 254.346 183.174,255.430 183.633,255.700 183.633 C 255.970 183.633,257.181 184.086,258.391 184.640 C 267.212 188.678,276.564 186.519,284.429 178.628 C 292.660 170.370,294.005 155.910,287.274 148.046 C 286.588 147.245,285.489 145.929,284.830 145.122 C 279.629 138.742,268.643 135.204,261.078 137.473 M274.603 139.741 C 281.589 143.103,283.352 144.797,288.575 153.167 C 290.664 156.515,290.647 163.804,288.535 169.941 C 287.101 174.107,281.570 180.541,277.957 182.246 C 277.126 182.638,275.729 183.424,274.850 183.993 C 272.118 185.762,265.300 185.544,260.493 183.533 C 258.525 182.710,256.656 182.036,256.340 182.036 C 256.024 182.036,254.795 181.577,253.608 181.015 C 251.491 180.014,251.428 180.008,250.329 180.716 C 248.298 182.024,244.619 184.989,241.748 187.632 C 240.194 189.063,237.939 190.949,236.738 191.823 C 235.537 192.696,233.828 194.137,232.940 195.025 C 232.053 195.913,230.401 197.350,229.269 198.220 C 228.137 199.089,225.466 201.238,223.333 202.994 C 221.199 204.750,218.894 206.572,218.210 207.041 C 214.709 209.442,213.525 212.349,214.662 215.747 C 215.493 218.229,215.752 223.943,215.183 227.264 C 214.522 231.134,215.713 233.519,219.746 236.399 C 221.889 237.930,223.916 239.657,226.687 242.315 C 233.130 248.495,242.958 255.895,244.705 255.879 C 245.257 255.875,246.433 255.542,247.319 255.139 C 255.270 251.527,267.784 256.834,272.455 265.798 L 274.052 268.862 274.052 276.517 C 274.052 283.894,274.019 284.213,273.140 285.300 C 272.639 285.920,271.792 287.325,271.259 288.423 C 269.709 291.612,265.879 295.052,261.697 297.012 L 258.124 298.686 253.913 298.506 C 248.122 298.259,243.645 296.624,240.703 293.683 C 234.027 287.007,230.647 276.543,233.187 270.415 C 234.544 267.142,233.267 263.847,229.806 261.687 C 228.324 260.762,220.096 253.679,216.367 250.118 C 208.472 242.579,206.847 241.834,202.349 243.693 C 198.340 245.350,193.623 245.819,189.297 244.990 C 182.854 243.754,181.808 244.099,176.201 249.301 C 174.308 251.058,172.466 252.658,172.108 252.858 C 171.750 253.058,170.289 254.247,168.862 255.502 C 167.435 256.756,164.838 258.806,163.091 260.058 C 158.180 263.576,157.662 264.858,158.730 270.836 C 160.582 281.204,152.797 290.362,142.116 290.380 C 135.461 290.392,127.706 284.420,126.375 278.258 C 124.498 269.572,127.115 263.185,134.531 258.352 L 136.727 256.922 143.114 256.657 C 150.699 256.342,148.878 257.074,154.210 252.196 C 159.116 247.707,161.553 245.636,164.428 243.513 C 169.047 240.101,169.815 239.459,171.344 237.721 C 173.581 235.180,174.171 233.367,173.357 231.537 C 172.927 230.570,172.658 228.210,172.484 223.867 C 172.197 216.690,171.855 215.817,168.925 214.782 C 168.011 214.460,167.171 213.921,167.058 213.585 C 166.945 213.249,164.304 211.537,161.189 209.780 C 158.073 208.024,154.943 206.083,154.232 205.468 C 151.342 202.965,146.361 202.933,144.311 205.404 C 141.760 208.481,126.831 208.589,123.013 205.558 C 122.343 205.026,120.961 203.962,119.941 203.194 C 113.267 198.163,111.048 190.931,112.750 179.754 L 113.310 176.075 116.436 172.331 C 121.072 166.776,123.361 165.261,128.311 164.471 C 142.262 162.246,152.302 170.233,153.903 184.830 C 154.263 188.115,155.676 190.948,157.598 192.244 C 161.779 195.060,163.650 196.164,165.443 196.872 C 166.526 197.301,168.001 198.168,168.720 198.799 C 169.440 199.431,170.889 200.445,171.940 201.053 C 172.992 201.660,174.803 202.867,175.964 203.734 C 179.109 206.081,180.994 206.156,184.895 204.089 C 188.606 202.123,192.665 201.633,198.782 202.412 C 204.192 203.102,205.043 202.868,208.278 199.801 C 210.920 197.296,215.386 193.405,218.360 191.018 C 219.180 190.359,220.999 188.878,222.401 187.725 C 223.803 186.573,226.434 184.420,228.247 182.940 C 230.060 181.460,231.644 179.933,231.767 179.546 C 231.890 179.158,232.359 178.644,232.809 178.403 C 234.293 177.609,238.505 174.276,239.488 173.118 C 240.019 172.493,241.155 171.538,242.013 170.997 C 244.462 169.451,245.091 167.605,245.101 161.934 C 245.123 150.208,249.839 143.531,261.207 139.133 C 265.492 137.476,270.355 137.696,274.603 139.741 M263.403 150.659 C 256.507 153.122,253.489 163.521,258.242 168.446 C 266.081 176.569,278.254 172.011,278.241 160.958 C 278.232 153.459,270.531 148.113,263.403 150.659 M271.947 152.792 C 276.197 155.398,278.168 160.615,276.453 164.719 C 272.408 174.399,257.864 172.191,257.727 161.876 C 257.618 153.598,265.279 148.704,271.947 152.792 M131.126 175.228 C 121.679 177.444,119.399 189.632,127.455 194.848 C 135.888 200.307,145.003 192.804,142.518 182.448 C 141.429 177.909,135.559 174.188,131.126 175.228 M137.071 177.876 C 142.074 180.259,143.319 187.838,139.438 192.286 C 137.025 195.051,131.727 195.835,128.670 193.880 C 123.431 190.529,122.158 185.591,125.375 181.098 C 128.515 176.713,132.388 175.646,137.071 177.876 M191.114 213.321 C 189.366 213.973,188.972 214.270,186.186 217.038 C 179.141 224.038,184.412 234.767,194.650 234.268 C 201.581 233.930,204.591 230.678,204.591 223.528 L 204.591 219.243 202.986 217.349 C 199.847 213.646,194.817 211.939,191.114 213.321 M198.072 215.470 C 205.943 219.284,205.264 229.171,196.912 232.352 C 188.051 235.727,180.755 224.579,187.382 217.791 C 190.794 214.296,194.146 213.568,198.072 215.470 M250.622 266.255 C 241.097 267.980,240.526 282.742,249.856 286.076 C 256.584 288.481,263.284 284.291,264.089 277.174 C 264.956 269.513,259.054 264.728,250.622 266.255 M259.018 268.964 C 269.187 277.534,257.317 290.912,246.975 282.537 C 245.767 281.559,244.729 278.252,244.717 275.345 C 244.688 268.496,253.695 264.477,259.018 268.964 " stroke="none" fill="#16507e" fill-rule="evenodd"></path><path id="path3" d="M161.677 47.956 C 159.429 48.334,156.422 49.688,154.291 51.284 C 153.633 51.777,152.375 52.549,151.497 53.000 C 150.619 53.450,149.235 54.689,148.423 55.752 C 147.610 56.815,146.424 58.169,145.787 58.760 C 144.949 59.539,144.487 60.509,144.112 62.275 C 143.827 63.616,143.233 65.172,142.792 65.733 C 141.714 67.104,141.374 70.982,141.342 82.259 C 141.323 89.375,141.198 91.427,140.751 92.039 C 140.201 92.792,139.286 92.820,108.915 93.014 L 77.645 93.214 75.449 94.269 C 74.242 94.850,72.560 95.544,71.713 95.812 C 68.653 96.778,62.659 102.587,59.334 107.807 C 56.122 112.850,56.314 106.251,56.300 212.151 C 56.285 321.255,55.970 313.231,60.580 321.012 C 63.949 326.695,66.491 329.939,69.715 332.668 C 76.646 338.533,79.546 339.848,87.891 340.909 C 91.557 341.374,306.592 341.519,313.373 341.060 C 320.787 340.559,337.325 329.869,337.325 325.578 C 337.325 325.315,337.864 324.583,338.523 323.952 C 339.182 323.321,339.721 322.666,339.721 322.495 C 339.721 322.325,340.342 320.877,341.101 319.277 C 341.860 317.677,342.680 315.379,342.923 314.172 C 343.167 312.964,343.727 311.101,344.170 310.031 C 345.448 306.941,345.474 119.033,344.197 114.970 C 343.748 113.543,343.258 111.600,343.108 110.652 C 342.909 109.393,342.587 108.816,341.913 108.509 C 341.375 108.264,340.711 107.358,340.322 106.339 C 339.253 103.539,330.762 95.808,328.755 95.808 C 328.522 95.808,327.684 95.461,326.892 95.037 C 323.402 93.166,320.935 93.008,296.723 93.101 L 274.052 93.187 297.804 93.401 C 324.532 93.641,322.872 93.456,329.541 96.937 C 333.227 98.861,338.686 104.046,339.911 106.786 C 340.401 107.884,341.185 109.121,341.651 109.536 C 342.118 109.950,342.614 110.938,342.753 111.731 C 342.893 112.525,343.345 114.611,343.756 116.367 C 344.758 120.638,344.953 306.354,343.958 308.734 C 343.654 309.462,343.118 311.320,342.767 312.863 C 342.416 314.407,341.587 316.814,340.925 318.214 C 340.263 319.613,339.721 320.966,339.721 321.220 C 339.721 321.473,339.092 322.434,338.323 323.353 C 337.555 324.273,336.926 325.201,336.926 325.416 C 336.926 327.609,328.752 334.145,320.592 338.476 L 316.367 340.719 202.395 340.719 C 95.472 340.719,88.199 340.675,84.799 340.020 C 76.906 338.497,68.300 332.272,63.659 324.727 C 63.213 324.001,62.558 323.081,62.205 322.682 C 61.852 322.283,60.828 320.519,59.930 318.762 C 56.895 312.828,57.054 318.646,57.030 212.375 C 57.008 109.601,56.951 112.301,59.204 109.296 C 59.745 108.575,60.551 107.260,60.995 106.376 C 62.877 102.627,68.941 97.654,74.531 95.277 L 78.443 93.613 109.513 93.413 C 138.462 93.227,140.618 93.166,141.092 92.518 C 141.465 92.008,141.656 88.685,141.806 80.075 C 142.001 68.890,142.052 68.261,142.881 66.920 C 143.360 66.146,144.072 64.355,144.464 62.940 C 145.737 58.352,152.718 51.767,158.672 49.539 C 162.869 47.969,165.959 47.863,203.593 47.993 L 239.721 48.119 243.513 49.573 C 252.178 52.896,255.800 56.236,259.674 64.471 L 261.176 67.665 261.380 79.562 C 261.630 94.220,261.177 93.176,267.324 93.251 L 271.657 93.303 267.864 93.042 C 261.647 92.613,261.963 93.367,261.786 78.572 L 261.649 67.123 259.593 63.003 C 255.971 55.747,252.921 52.952,244.711 49.365 L 240.918 47.708 202.395 47.647 C 180.346 47.613,162.933 47.745,161.677 47.956 M164.038 67.168 C 158.763 67.905,158.367 68.958,158.452 82.002 C 158.516 91.907,158.601 92.527,159.957 93.043 C 161.046 93.457,239.835 93.570,241.884 93.160 C 243.885 92.760,244.196 91.657,244.516 83.831 C 244.773 77.543,244.415 70.994,243.684 68.599 C 243.206 67.031,240.883 66.934,202.760 66.900 C 182.652 66.881,165.226 67.002,164.038 67.168 M238.922 67.482 C 243.752 68.173,243.343 67.564,243.871 74.850 C 244.488 83.357,243.911 90.917,242.555 92.083 L 241.472 93.014 201.038 93.014 L 160.603 93.014 159.842 92.175 C 157.733 89.847,158.876 69.133,161.176 68.007 C 161.561 67.819,176.966 67.571,195.409 67.457 C 213.852 67.343,230.559 67.212,232.535 67.166 C 234.511 67.120,237.385 67.262,238.922 67.482 M79.670 113.567 C 77.557 114.321,75.480 116.478,75.022 118.397 C 74.553 120.361,74.535 305.190,75.004 306.824 C 75.513 308.601,77.455 312.193,78.867 313.972 C 79.564 314.850,80.331 315.950,80.572 316.416 C 81.396 318.007,87.014 320.538,90.704 320.982 C 97.036 321.743,312.404 321.287,314.639 320.508 C 318.744 319.077,324.963 310.929,325.692 306.026 C 326.481 300.721,326.328 121.819,325.532 118.762 C 324.743 115.734,323.368 113.925,321.449 113.392 C 318.908 112.686,81.661 112.858,79.670 113.567 M320.257 113.629 C 322.055 113.926,323.576 115.339,324.709 117.764 L 325.549 119.561 325.670 210.180 C 325.806 312.211,325.938 307.133,323.057 311.323 C 319.718 316.180,316.424 319.361,314.045 320.027 C 311.852 320.641,102.853 321.157,92.766 320.574 C 87.802 320.286,83.108 318.430,81.294 316.037 C 80.824 315.416,79.994 314.428,79.451 313.841 C 78.907 313.255,77.694 311.262,76.756 309.414 L 75.050 306.053 75.050 213.378 C 75.050 110.933,74.874 117.795,77.551 115.539 C 78.261 114.940,79.381 114.215,80.040 113.928 C 81.302 113.376,316.956 113.083,320.257 113.629 M260.911 136.919 C 255.711 138.584,250.638 141.601,248.694 144.187 C 245.813 148.019,244.337 150.662,244.094 152.424 C 243.953 153.451,243.584 155.425,243.276 156.811 C 242.967 158.197,242.715 160.766,242.715 162.520 C 242.715 166.149,242.191 167.509,240.210 169.020 C 239.491 169.568,238.293 170.831,237.547 171.827 C 236.801 172.822,235.548 174.070,234.762 174.600 C 233.976 175.130,232.304 176.570,231.046 177.801 C 229.789 179.033,228.578 180.040,228.356 180.040 C 228.134 180.040,226.996 180.893,225.826 181.936 C 224.656 182.979,221.915 185.319,219.734 187.137 C 214.263 191.696,210.247 195.177,207.186 198.015 C 204.135 200.844,203.360 201.113,200.414 200.371 C 195.380 199.103,184.944 200.605,182.467 202.954 C 181.099 204.251,179.747 203.969,176.870 201.788 C 175.650 200.863,173.730 199.641,172.605 199.073 C 171.479 198.506,170.449 197.755,170.315 197.406 C 170.181 197.056,169.395 196.488,168.568 196.143 C 166.292 195.193,158.270 189.758,157.110 188.379 C 156.234 187.338,156.088 186.779,156.088 184.471 C 156.088 178.794,153.138 172.531,148.229 167.788 C 145.157 164.819,144.166 164.297,139.321 163.097 C 137.894 162.744,136.098 162.284,135.329 162.075 C 133.185 161.493,129.446 161.602,128.124 162.286 C 127.476 162.621,126.045 163.066,124.943 163.275 C 116.999 164.781,112.051 171.601,109.737 184.232 C 108.799 189.354,112.495 199.866,116.638 203.858 C 123.904 210.859,139.105 212.361,145.623 206.723 C 147.353 205.227,150.388 205.116,152.113 206.487 C 152.735 206.981,154.109 207.914,155.165 208.560 C 156.221 209.206,158.253 210.493,159.681 211.420 C 161.108 212.347,162.954 213.232,163.783 213.386 C 164.643 213.545,165.465 213.991,165.697 214.424 C 165.920 214.840,166.791 215.616,167.634 216.148 C 170.562 217.997,171.412 220.719,170.511 225.364 C 170.293 226.485,170.416 227.881,170.912 229.947 C 171.890 234.016,170.078 237.860,166.467 239.378 C 165.808 239.655,165.269 240.066,165.269 240.292 C 165.269 240.518,164.506 241.090,163.573 241.563 C 161.863 242.431,157.306 246.154,155.090 248.495 C 149.858 254.022,147.788 255.090,142.309 255.090 C 133.948 255.090,127.366 258.647,125.388 264.235 C 124.954 265.463,124.303 267.275,123.943 268.263 C 122.953 270.973,123.009 276.407,124.047 278.443 C 124.495 279.321,125.103 280.848,125.398 281.836 C 126.329 284.953,132.400 290.383,136.145 291.449 C 137.124 291.727,140.171 291.969,142.917 291.985 L 147.910 292.016 151.441 290.220 C 158.680 286.537,162.606 278.692,161.048 271.020 C 160.024 265.976,160.789 263.524,163.958 261.686 C 165.822 260.605,170.665 256.827,172.540 254.990 C 172.932 254.606,173.421 254.291,173.626 254.291 C 173.831 254.291,176.079 252.495,178.623 250.299 C 183.898 245.746,184.531 245.555,189.036 247.151 C 192.250 248.290,196.479 247.990,201.424 246.274 C 205.847 244.738,207.544 244.845,209.397 246.778 C 210.096 247.507,211.796 249.092,213.175 250.299 C 214.554 251.507,216.241 253.040,216.924 253.707 C 217.606 254.373,219.153 255.649,220.360 256.543 C 221.567 257.437,223.273 258.877,224.152 259.744 C 225.030 260.611,226.354 261.742,227.094 262.258 C 230.909 264.919,231.988 267.023,231.123 270.113 C 230.273 273.148,230.806 282.788,231.906 284.276 C 232.387 284.927,233.036 286.183,233.348 287.067 C 234.696 290.888,239.323 296.253,242.748 297.966 C 248.635 300.911,258.111 301.123,263.568 298.432 C 269.469 295.522,274.928 288.586,275.241 283.599 L 275.415 280.838 275.054 283.356 C 274.341 288.344,269.001 294.953,263.273 297.937 L 260.080 299.601 254.092 299.588 C 243.198 299.563,238.350 296.273,233.234 285.429 C 231.051 280.802,230.382 273.939,231.721 269.907 C 232.603 267.253,231.594 264.840,228.743 262.780 C 227.754 262.067,225.844 260.489,224.497 259.274 C 223.149 258.059,221.326 256.542,220.444 255.904 C 219.562 255.265,218.235 254.147,217.495 253.419 C 208.211 244.289,207.466 243.917,201.760 245.569 C 196.848 246.991,192.915 247.374,190.005 246.713 C 183.441 245.223,183.225 245.279,178.066 249.823 C 173.084 254.213,166.201 259.690,163.537 261.385 C 160.610 263.248,159.912 264.787,160.249 268.637 C 160.394 270.298,160.605 272.735,160.717 274.052 C 161.789 286.601,145.774 295.994,134.003 289.720 C 124.076 284.428,121.609 275.212,126.741 262.592 C 127.094 261.724,133.084 257.170,134.930 256.366 C 135.840 255.969,137.998 255.705,141.118 255.609 C 148.589 255.378,149.478 254.976,155.090 249.295 C 157.619 246.735,162.345 242.802,163.768 242.073 C 169.424 239.176,172.384 234.993,171.629 230.961 C 171.339 229.411,171.144 226.168,171.197 223.752 C 171.304 218.800,170.771 217.331,168.399 216.045 C 167.715 215.673,166.701 214.875,166.146 214.271 C 165.591 213.668,164.916 213.174,164.645 213.174 C 163.857 213.174,160.093 211.080,155.632 208.160 C 150.215 204.614,147.431 204.157,145.150 206.438 C 141.056 210.531,128.443 210.477,121.357 206.335 C 117.085 203.838,111.776 197.298,111.776 194.532 C 111.776 194.196,111.402 192.372,110.944 190.478 C 110.108 187.020,110.130 184.066,111.010 181.752 C 111.205 181.239,111.557 179.615,111.792 178.143 C 113.109 169.900,119.820 164.371,130.782 162.500 C 132.770 162.160,141.072 163.732,143.591 164.925 C 147.109 166.592,152.848 173.221,153.718 176.623 C 153.946 177.514,154.396 178.929,154.718 179.767 C 155.040 180.605,155.414 182.671,155.547 184.358 C 155.700 186.276,156.072 187.893,156.540 188.674 C 157.299 189.937,164.691 195.074,167.345 196.183 C 168.105 196.501,168.966 197.050,169.260 197.403 C 169.553 197.757,171.007 198.755,172.490 199.621 C 173.972 200.487,175.971 201.795,176.930 202.527 C 179.445 204.447,181.004 204.661,182.898 203.349 C 186.329 200.972,194.505 199.833,199.755 201.001 C 203.857 201.913,204.073 201.791,213.411 193.245 C 215.640 191.205,217.783 189.412,226.347 182.424 C 227.994 181.081,230.431 178.996,231.763 177.791 C 233.095 176.586,234.637 175.297,235.188 174.926 C 236.943 173.746,242.367 167.914,242.951 166.580 C 243.288 165.808,243.513 163.950,243.513 161.928 C 243.513 150.453,247.866 143.285,257.527 138.848 L 261.277 137.126 267.066 137.126 L 272.854 137.126 275.922 138.607 C 279.417 140.293,283.075 142.969,284.830 145.122 C 285.489 145.929,286.588 147.245,287.274 148.046 C 289.536 150.689,290.715 153.571,291.052 157.285 L 291.360 160.679 291.242 157.038 C 291.064 151.537,290.144 149.802,284.284 143.912 C 281.298 140.912,279.316 139.384,277.597 138.760 C 276.745 138.451,275.419 137.876,274.651 137.483 C 273.050 136.664,262.998 136.252,260.911 136.919 M265.669 151.351 C 260.891 152.473,257.660 156.755,257.727 161.876 C 257.864 172.191,272.408 174.399,276.453 164.719 C 279.138 158.291,272.286 149.797,265.669 151.351 M270.640 152.678 C 271.008 153.011,271.887 153.485,272.594 153.731 C 273.388 154.008,274.109 154.657,274.485 155.433 C 274.819 156.122,275.452 157.315,275.891 158.084 C 278.180 162.088,275.460 168.210,270.746 169.666 C 263.284 171.971,257.124 166.815,258.463 159.386 C 259.515 153.551,267.030 149.411,270.640 152.678 M291.277 164.172 C 290.668 172.025,285.575 179.604,277.843 184.164 C 273.301 186.842,263.713 187.076,258.391 184.640 C 257.181 184.086,255.970 183.633,255.700 183.633 C 255.430 183.633,254.346 183.174,253.291 182.613 L 251.372 181.593 249.738 183.166 C 248.839 184.031,247.332 185.216,246.388 185.800 C 245.444 186.383,244.580 187.102,244.467 187.397 C 244.221 188.037,237.753 193.290,236.327 194.007 C 235.778 194.283,234.880 194.931,234.331 195.447 C 232.142 197.506,229.863 199.514,227.125 201.796 C 225.545 203.114,223.395 204.910,222.348 205.788 C 221.300 206.667,219.542 208.104,218.440 208.982 C 215.310 211.477,215.045 212.490,216.403 216.766 C 217.306 219.613,217.576 224.742,217.005 228.199 C 216.578 230.783,217.664 232.993,220.010 234.311 C 220.864 234.791,222.235 235.996,223.057 236.988 C 223.879 237.980,225.213 239.133,226.022 239.550 C 226.830 239.967,227.751 240.678,228.067 241.130 C 228.865 242.269,233.023 245.854,237.479 249.245 C 239.540 250.813,241.687 252.451,242.250 252.886 C 243.450 253.812,245.137 253.877,249.708 253.174 C 257.482 251.979,263.709 253.929,269.305 259.310 C 270.928 260.871,272.255 262.343,272.255 262.581 C 272.255 262.818,272.716 263.559,273.278 264.228 C 273.977 265.059,274.468 266.361,274.832 268.350 C 275.124 269.949,275.371 270.808,275.382 270.259 C 275.485 264.961,270.136 257.472,264.192 254.591 C 259.425 252.281,256.926 252.045,246.611 252.932 L 243.521 253.198 241.339 251.449 C 240.139 250.488,238.296 249.076,237.243 248.314 C 234.361 246.225,228.410 241.070,228.176 240.459 C 228.063 240.164,227.201 239.546,226.260 239.085 C 225.156 238.544,224.173 237.634,223.483 236.512 C 222.840 235.467,221.782 234.454,220.822 233.965 C 217.817 232.432,217.540 231.633,217.818 225.295 C 218.041 220.219,217.988 219.562,217.176 217.365 C 215.144 211.867,214.814 212.415,224.950 204.433 C 226.048 203.568,227.732 202.127,228.693 201.231 C 229.654 200.334,230.558 199.601,230.703 199.601 C 230.847 199.601,231.284 199.062,231.673 198.403 C 232.062 197.745,232.650 197.206,232.979 197.206 C 233.309 197.206,234.062 196.698,234.653 196.077 C 235.245 195.456,236.419 194.554,237.262 194.073 C 239.230 192.950,241.407 191.200,244.415 188.323 C 245.736 187.061,246.979 186.028,247.178 186.028 C 247.376 186.028,248.396 185.227,249.443 184.247 L 251.346 182.467 253.917 183.463 C 255.330 184.011,257.275 184.822,258.239 185.265 C 262.563 187.255,274.296 187.168,277.370 185.123 C 278.180 184.584,279.486 183.763,280.272 183.299 C 283.579 181.343,288.743 175.287,290.119 171.750 C 291.286 168.748,292.455 160.878,291.733 160.878 C 291.622 160.878,291.417 162.360,291.277 164.172 M131.337 176.808 C 127.971 177.878,123.683 181.959,123.784 183.997 C 123.811 184.538,123.849 184.543,124.045 184.032 C 127.768 174.306,141.118 175.710,141.118 185.828 C 141.118 195.679,129.515 197.638,124.468 188.641 C 124.093 187.972,123.778 187.700,123.769 188.035 C 123.750 188.736,124.617 190.116,126.109 191.762 C 134.055 200.524,146.424 190.149,139.957 180.145 C 138.552 177.971,133.649 176.073,131.337 176.808 M191.244 215.029 C 185.559 217.019,183.022 224.118,186.304 228.853 C 190.489 234.892,199.324 234.066,202.621 227.328 C 206.095 220.226,198.831 212.373,191.244 215.029 M198.621 216.074 C 207.791 220.817,201.034 234.771,191.026 231.759 C 185.746 230.170,183.341 222.058,187.172 218.762 C 187.810 218.214,188.519 217.406,188.748 216.968 C 189.625 215.285,195.983 214.709,198.621 216.074 M250.726 267.477 C 246.166 268.432,243.897 273.334,245.285 279.235 C 246.564 284.673,254.340 287.342,258.620 283.812 C 267.130 276.794,261.534 265.215,250.726 267.477 M258.618 269.407 C 263.551 273.537,263.520 278.290,258.530 283.229 C 256.272 285.464,252.533 285.473,248.854 283.252 L 246.410 281.777 245.764 278.713 C 243.916 269.952,252.150 263.992,258.618 269.407 M275.535 276.048 C 275.539 279.608,275.626 280.428,275.871 279.242 C 276.284 277.248,276.272 273.577,275.848 272.255 C 275.651 271.640,275.531 273.093,275.535 276.048 " stroke="none" fill="#103c5c" fill-rule="evenodd"></path><path id="path4" d="M165.070 46.984 C 160.196 47.309,157.564 47.924,155.943 49.116 C 155.058 49.767,154.131 50.299,153.883 50.299 C 153.635 50.299,153.025 50.733,152.527 51.264 C 152.029 51.794,151.152 52.346,150.579 52.489 C 149.519 52.755,146.953 55.318,146.923 56.140 C 146.914 56.389,146.317 57.041,145.597 57.591 C 144.652 58.312,144.084 59.242,143.559 60.932 C 143.158 62.220,142.509 63.633,142.116 64.072 C 141.249 65.040,140.288 78.678,140.589 85.741 C 140.690 88.095,140.702 90.334,140.616 90.718 C 140.294 92.162,140.213 92.166,105.760 92.422 C 76.520 92.640,74.762 92.764,71.571 94.835 C 71.085 95.151,70.411 95.409,70.074 95.409 C 69.343 95.409,62.012 102.249,60.891 103.978 C 60.459 104.645,59.751 105.448,59.318 105.764 C 57.537 107.065,57.204 107.703,56.935 110.336 C 56.784 111.808,56.394 114.050,56.069 115.320 C 55.272 118.432,55.381 308.264,56.181 310.579 C 56.447 311.347,56.950 313.503,57.299 315.369 C 57.910 318.638,60.376 323.401,61.995 324.442 C 62.259 324.612,62.777 325.289,63.147 325.948 C 63.517 326.607,64.395 328.179,65.099 329.441 C 65.803 330.704,66.521 331.737,66.694 331.737 C 66.867 331.737,67.673 332.363,68.484 333.128 C 72.260 336.689,78.501 339.886,83.782 340.964 C 85.895 341.395,88.454 341.924,89.467 342.140 C 90.653 342.392,131.026 342.493,202.840 342.422 L 314.371 342.313 318.016 341.078 C 320.021 340.398,322.198 339.460,322.855 338.993 C 323.511 338.526,324.510 337.968,325.075 337.753 C 326.463 337.225,330.938 334.147,330.938 333.720 C 330.938 333.532,331.622 332.964,332.458 332.458 C 334.494 331.224,336.747 328.650,337.724 326.442 C 338.163 325.449,338.775 324.540,339.083 324.421 C 339.890 324.112,342.780 318.150,343.116 316.104 C 343.272 315.151,343.635 314.102,343.922 313.772 C 345.783 311.636,345.729 314.711,345.714 212.680 C 345.703 142.087,345.579 116.541,345.238 114.770 C 344.984 113.453,344.760 111.567,344.741 110.579 C 344.698 108.368,344.457 107.977,342.532 106.995 C 341.570 106.504,340.855 105.783,340.597 105.043 C 339.714 102.510,331.684 95.409,329.703 95.409 C 329.338 95.409,328.824 95.149,328.560 94.830 C 328.295 94.512,326.702 93.971,325.018 93.629 C 323.334 93.287,321.327 92.873,320.559 92.711 C 319.790 92.548,309.102 92.508,296.806 92.621 L 274.451 92.828 296.923 92.921 C 320.801 93.020,323.482 93.209,326.892 95.037 C 327.684 95.461,328.522 95.808,328.755 95.808 C 330.762 95.808,339.253 103.539,340.322 106.339 C 340.711 107.358,341.375 108.264,341.913 108.509 C 342.587 108.816,342.909 109.393,343.108 110.652 C 343.258 111.600,343.748 113.543,344.197 114.970 C 345.474 119.033,345.448 306.941,344.170 310.031 C 343.727 311.101,343.167 312.964,342.923 314.172 C 342.680 315.379,341.860 317.677,341.101 319.277 C 340.342 320.877,339.721 322.325,339.721 322.495 C 339.721 322.666,339.182 323.321,338.523 323.952 C 337.864 324.583,337.325 325.315,337.325 325.578 C 337.325 329.869,320.787 340.559,313.373 341.060 C 306.592 341.519,91.557 341.374,87.891 340.909 C 79.546 339.848,76.646 338.533,69.715 332.668 C 66.491 329.939,63.949 326.695,60.580 321.012 C 55.970 313.231,56.285 321.255,56.300 212.151 C 56.314 106.251,56.122 112.850,59.334 107.807 C 62.659 102.587,68.653 96.778,71.713 95.812 C 72.560 95.544,74.242 94.850,75.449 94.269 L 77.645 93.214 108.915 93.014 C 139.286 92.820,140.201 92.792,140.751 92.039 C 141.198 91.427,141.323 89.375,141.342 82.259 C 141.374 70.982,141.714 67.104,142.792 65.733 C 143.233 65.172,143.827 63.616,144.112 62.275 C 144.487 60.509,144.949 59.539,145.787 58.760 C 146.424 58.169,147.610 56.815,148.423 55.751 C 149.235 54.688,150.709 53.376,151.697 52.837 C 152.685 52.297,154.571 51.162,155.888 50.313 C 160.114 47.592,158.152 47.705,201.397 47.705 L 240.519 47.705 244.306 49.258 C 252.611 52.664,255.915 55.635,259.593 63.003 L 261.649 67.123 261.786 78.572 C 261.961 93.168,261.918 93.063,267.584 92.964 L 270.459 92.913 267.493 92.420 C 263.064 91.682,263.233 92.127,262.898 80.361 C 262.583 69.278,261.793 63.907,260.156 61.715 C 259.648 61.035,258.997 59.895,258.709 59.181 C 257.600 56.428,252.937 52.208,249.102 50.487 C 248.333 50.142,246.627 49.329,245.309 48.679 C 243.810 47.940,241.794 47.355,239.920 47.115 C 237.209 46.767,170.073 46.650,165.070 46.984 M195.409 67.457 C 176.966 67.571,161.561 67.819,161.176 68.007 C 159.466 68.844,158.816 73.102,158.954 82.559 C 159.116 93.692,158.707 93.035,165.431 92.961 L 170.259 92.908 167.066 92.579 C 159.601 91.812,159.953 92.357,159.929 81.506 L 159.911 73.253 161.263 70.799 C 163.021 67.608,159.310 67.873,202.196 67.875 C 243.317 67.876,240.132 67.622,242.073 71.058 L 243.313 73.253 243.273 80.690 C 243.235 87.528,243.160 88.276,242.338 89.973 C 241.394 91.923,241.420 91.910,237.325 92.542 L 234.930 92.911 238.201 92.963 C 243.281 93.042,243.554 92.693,243.943 85.595 C 244.217 80.599,243.825 70.721,243.284 68.982 C 242.925 67.828,238.217 67.033,232.535 67.166 C 230.559 67.212,213.852 67.343,195.409 67.457 M161.756 79.122 C 160.949 79.929,161.150 82.508,162.038 82.741 C 162.916 82.970,163.355 81.587,162.991 79.741 C 162.753 78.534,162.480 78.398,161.756 79.122 M190.719 92.914 C 198.239 92.975,210.544 92.975,218.064 92.914 C 225.584 92.853,219.431 92.804,204.391 92.804 C 189.351 92.804,183.199 92.853,190.719 92.914 M272.355 93.289 C 272.740 93.390,273.368 93.390,273.752 93.289 C 274.137 93.189,273.822 93.107,273.054 93.107 C 272.285 93.107,271.971 93.189,272.355 93.289 M80.040 113.928 C 79.381 114.215,78.261 114.940,77.551 115.539 C 74.874 117.795,75.050 110.933,75.050 213.378 L 75.050 306.053 76.756 309.414 C 77.694 311.262,78.907 313.255,79.451 313.841 C 79.994 314.428,80.824 315.416,81.294 316.037 C 83.108 318.430,87.802 320.286,92.766 320.574 C 102.853 321.157,311.852 320.641,314.045 320.027 C 316.424 319.361,319.718 316.180,323.057 311.323 C 325.938 307.133,325.806 312.211,325.670 210.180 L 325.549 119.561 324.709 117.764 C 323.576 115.339,322.055 113.926,320.257 113.629 C 316.956 113.083,81.302 113.376,80.040 113.928 M319.924 114.559 C 321.554 115.097,323.038 116.717,324.163 119.186 C 324.947 120.907,324.954 121.903,324.853 213.457 L 324.750 305.988 323.284 308.982 C 322.424 310.737,320.896 312.949,319.591 314.326 C 318.367 315.618,317.365 316.828,317.365 317.015 C 317.365 317.874,314.127 319.409,311.344 319.869 C 309.034 320.252,284.378 320.315,199.202 320.160 L 90.020 319.960 86.826 318.423 C 82.912 316.538,78.677 312.429,77.702 309.569 C 77.366 308.580,76.830 307.511,76.512 307.193 C 76.085 306.767,75.858 304.990,75.643 300.422 C 75.199 290.928,75.720 121.415,76.199 119.846 C 76.737 118.084,78.198 115.769,78.775 115.766 C 79.032 115.765,79.780 115.476,80.439 115.124 C 81.517 114.548,87.015 114.469,135.287 114.337 C 164.794 114.257,188.986 114.141,189.046 114.081 C 189.446 113.681,318.692 114.152,319.924 114.559 M259.433 136.527 C 258.638 136.728,257.380 137.244,256.638 137.674 C 255.896 138.103,254.524 138.679,253.588 138.953 C 251.561 139.546,247.893 142.945,246.108 145.884 C 244.010 149.338,243.882 149.641,243.461 152.190 C 243.233 153.565,242.771 155.301,242.435 156.046 C 242.079 156.836,241.707 159.311,241.544 161.975 L 241.264 166.548 239.145 168.590 C 237.980 169.713,236.597 171.312,236.073 172.142 C 235.549 172.973,234.941 173.653,234.723 173.653 C 234.505 173.653,233.241 174.686,231.914 175.948 C 230.586 177.211,228.707 178.705,227.737 179.269 C 226.767 179.833,225.527 180.732,224.982 181.265 C 224.436 181.799,223.323 182.774,222.508 183.433 C 220.810 184.806,217.171 188.012,216.571 188.662 C 216.349 188.903,215.314 189.697,214.271 190.426 C 213.229 191.155,212.375 191.893,212.375 192.064 C 212.375 192.236,211.611 192.903,210.676 193.546 C 209.742 194.189,208.223 195.447,207.300 196.342 C 204.058 199.488,202.891 200.025,200.599 199.423 C 198.137 198.778,189.428 199.039,188.215 199.795 C 187.771 200.072,186.603 200.430,185.620 200.591 C 184.637 200.752,183.243 201.327,182.523 201.868 C 180.894 203.093,179.600 202.886,177.137 201.006 C 176.175 200.271,174.574 199.287,173.578 198.819 C 172.583 198.352,171.588 197.572,171.367 197.088 C 171.146 196.604,169.729 195.561,168.217 194.770 C 159.512 190.217,157.125 187.864,156.753 183.469 C 156.194 176.855,153.230 170.551,149.006 166.995 C 147.749 165.936,146.447 164.772,146.114 164.407 C 145.778 164.039,144.335 163.550,142.873 163.308 C 141.423 163.068,139.714 162.611,139.076 162.292 C 135.936 160.726,128.463 160.539,126.043 161.967 C 125.330 162.388,123.580 162.961,122.154 163.242 C 118.300 164.000,116.740 165.086,114.457 168.599 C 113.751 169.686,112.866 171.048,112.489 171.628 C 112.113 172.207,111.526 173.842,111.187 175.262 C 110.847 176.682,110.173 179.102,109.689 180.639 C 106.461 190.890,112.353 204.580,121.538 208.168 C 131.842 212.193,137.995 211.981,146.399 207.311 L 148.886 205.928 151.389 207.193 C 152.766 207.889,154.431 208.859,155.090 209.348 C 155.749 209.838,156.557 210.359,156.886 210.506 C 157.216 210.654,158.343 211.394,159.392 212.151 C 160.558 212.993,162.004 213.633,163.116 213.800 C 164.488 214.005,165.038 214.302,165.361 215.012 C 165.597 215.530,166.166 216.072,166.626 216.218 C 168.890 216.937,170.294 220.311,169.723 223.660 C 169.088 227.377,169.137 228.398,170.065 230.751 C 170.506 231.871,170.731 233.009,170.564 233.280 C 169.221 235.447,166.620 238.328,165.639 238.735 C 164.982 239.007,164.127 239.632,163.741 240.124 C 163.354 240.616,162.327 241.384,161.459 241.832 C 160.591 242.279,157.814 244.641,155.289 247.082 C 148.518 253.626,148.532 253.618,142.965 253.927 C 137.360 254.239,130.938 255.899,130.938 257.036 C 130.938 257.212,130.456 257.577,129.866 257.845 C 127.508 258.920,125.854 260.637,125.173 262.719 C 124.804 263.846,124.109 265.300,123.629 265.950 C 122.318 267.723,122.293 278.467,123.596 279.908 C 124.059 280.420,124.772 281.793,125.181 282.959 C 125.911 285.042,126.997 286.274,131.497 290.123 C 133.124 291.514,133.440 291.630,137.126 292.190 C 138.443 292.390,140.240 292.735,141.118 292.957 C 147.624 294.602,156.607 289.902,160.067 283.043 C 162.485 278.250,162.746 276.092,161.668 269.793 C 160.944 265.561,161.640 263.629,164.379 262.272 C 165.418 261.757,166.717 260.905,167.265 260.379 C 169.095 258.626,173.431 255.264,175.250 254.188 C 176.238 253.603,177.966 252.259,179.090 251.200 C 183.747 246.815,185.196 246.242,187.986 247.685 C 190.517 248.994,199.542 248.793,201.112 247.392 C 203.064 245.649,208.135 245.602,208.788 247.320 C 208.984 247.834,209.504 248.448,209.945 248.684 C 210.386 248.920,212.326 250.653,214.256 252.535 C 216.186 254.416,218.393 256.288,219.162 256.694 C 219.930 257.100,221.768 258.612,223.246 260.053 C 224.724 261.495,226.101 262.675,226.306 262.675 C 228.474 262.675,231.111 267.450,230.389 270.066 C 230.117 271.051,230.055 274.096,230.217 278.571 L 230.469 285.541 231.596 286.184 C 232.215 286.537,232.884 287.287,233.081 287.851 C 234.252 291.191,239.109 297.341,241.412 298.398 C 245.530 300.290,250.153 300.990,255.888 300.593 C 264.422 300.001,266.357 299.060,271.255 293.116 C 272.750 291.304,274.096 289.820,274.247 289.820 C 274.725 289.820,275.449 287.838,275.456 286.508 C 275.460 285.805,275.906 283.343,276.447 281.038 C 277.647 275.923,277.684 274.082,276.638 271.362 C 276.194 270.207,275.718 268.210,275.579 266.924 C 275.412 265.378,275.028 264.229,274.446 263.531 C 273.962 262.950,273.278 261.915,272.927 261.230 C 272.281 259.969,268.364 255.888,267.799 255.888 C 267.631 255.888,266.869 255.341,266.107 254.672 C 263.523 252.403,257.711 251.327,251.098 251.894 C 243.898 252.511,241.530 251.672,245.139 249.783 L 246.507 249.067 243.413 249.279 C 241.405 249.416,240.319 249.345,240.319 249.076 C 240.319 248.848,239.736 248.417,239.022 248.118 C 238.308 247.819,236.882 246.930,235.852 246.142 C 234.823 245.355,233.784 244.711,233.543 244.711 C 233.303 244.711,232.747 244.101,232.308 243.356 C 231.868 242.611,231.153 241.909,230.719 241.795 C 230.285 241.682,229.660 240.944,229.331 240.156 C 229.001 239.367,228.566 238.723,228.363 238.723 C 227.552 238.723,224.384 236.462,223.780 235.454 C 223.427 234.863,222.108 233.696,220.850 232.859 L 218.563 231.337 218.527 224.950 C 218.502 220.379,218.303 217.845,217.829 216.037 C 216.933 212.623,217.176 212.014,220.565 209.177 C 222.174 207.830,223.587 206.474,223.706 206.165 C 223.824 205.856,224.454 205.376,225.104 205.097 C 226.646 204.437,232.335 199.031,232.335 198.226 C 232.335 197.881,232.674 197.605,233.096 197.605 C 233.514 197.605,234.605 196.980,235.520 196.215 C 236.434 195.451,237.878 194.639,238.727 194.410 C 239.579 194.180,240.370 193.684,240.491 193.301 C 240.612 192.920,241.428 192.165,242.305 191.623 C 243.182 191.081,244.486 189.852,245.203 188.891 C 245.936 187.909,247.325 186.728,248.375 186.194 C 249.403 185.672,250.503 184.874,250.820 184.422 C 251.463 183.504,251.035 183.408,257.285 185.865 C 263.350 188.248,275.202 187.686,279.519 184.810 C 282.072 183.110,282.527 182.718,286.870 178.482 C 291.219 174.240,292.712 168.279,291.899 158.410 C 291.259 150.642,290.960 149.697,288.217 146.755 C 286.963 145.411,285.811 143.907,285.656 143.413 C 285.502 142.919,285.229 142.515,285.051 142.515 C 284.873 142.515,283.672 141.693,282.383 140.688 C 280.005 138.833,278.675 138.135,275.449 137.047 C 273.329 136.333,261.700 135.955,259.433 136.527 M274.651 137.483 C 275.419 137.876,276.745 138.451,277.597 138.760 C 279.768 139.549,282.648 142.022,287.671 147.412 C 291.935 151.988,293.108 163.643,290.112 171.657 C 288.754 175.287,283.692 181.277,280.272 183.299 C 279.486 183.763,278.180 184.584,277.370 185.123 C 274.296 187.168,262.563 187.255,258.239 185.265 C 257.275 184.822,255.330 184.011,253.917 183.463 L 251.346 182.467 249.443 184.247 C 248.396 185.227,247.376 186.028,247.178 186.028 C 246.979 186.028,245.736 187.061,244.415 188.323 C 241.407 191.200,239.230 192.950,237.262 194.073 C 236.419 194.554,235.245 195.456,234.653 196.077 C 234.062 196.698,233.309 197.206,232.979 197.206 C 232.650 197.206,232.062 197.745,231.673 198.403 C 231.284 199.062,230.847 199.601,230.703 199.601 C 230.558 199.601,229.654 200.334,228.693 201.231 C 227.732 202.127,226.048 203.568,224.950 204.433 C 214.814 212.415,215.144 211.867,217.176 217.365 C 217.988 219.562,218.041 220.219,217.818 225.295 C 217.540 231.633,217.817 232.432,220.822 233.965 C 221.782 234.454,222.840 235.467,223.483 236.512 C 224.173 237.634,225.156 238.544,226.260 239.085 C 227.201 239.546,228.063 240.164,228.176 240.459 C 228.410 241.070,234.361 246.225,237.243 248.314 C 238.296 249.076,240.139 250.488,241.339 251.449 L 243.521 253.198 246.611 252.932 C 256.926 252.045,259.425 252.281,264.192 254.591 C 273.451 259.079,277.296 268.519,275.531 282.435 C 273.723 296.694,256.508 304.850,242.748 297.966 C 239.323 296.253,234.696 290.888,233.348 287.067 C 233.036 286.183,232.387 284.927,231.906 284.276 C 230.806 282.788,230.273 273.148,231.123 270.113 C 231.988 267.023,230.909 264.919,227.094 262.258 C 226.354 261.742,225.030 260.611,224.152 259.744 C 223.273 258.877,221.567 257.437,220.360 256.543 C 219.153 255.649,217.606 254.373,216.924 253.707 C 216.241 253.040,214.554 251.507,213.175 250.299 C 211.796 249.092,210.096 247.507,209.397 246.778 C 207.544 244.845,205.847 244.738,201.424 246.274 C 196.479 247.990,192.250 248.290,189.036 247.151 C 184.531 245.555,183.898 245.746,178.623 250.299 C 176.079 252.495,173.831 254.291,173.626 254.291 C 173.421 254.291,172.932 254.606,172.540 254.990 C 170.665 256.827,165.822 260.605,163.958 261.686 C 160.789 263.524,160.024 265.976,161.048 271.020 C 162.606 278.692,158.680 286.537,151.441 290.220 L 147.910 292.016 142.917 291.985 C 140.171 291.969,137.124 291.727,136.145 291.449 C 132.400 290.383,126.329 284.953,125.398 281.836 C 125.103 280.848,124.495 279.321,124.047 278.443 C 123.009 276.407,122.953 270.973,123.943 268.263 C 124.303 267.275,124.954 265.463,125.388 264.235 C 127.366 258.647,133.948 255.090,142.309 255.090 C 147.788 255.090,149.858 254.022,155.090 248.495 C 157.306 246.154,161.863 242.431,163.573 241.563 C 164.506 241.090,165.269 240.518,165.269 240.292 C 165.269 240.066,165.808 239.655,166.467 239.378 C 170.078 237.860,171.890 234.016,170.912 229.947 C 170.416 227.881,170.293 226.485,170.511 225.364 C 171.412 220.719,170.562 217.997,167.634 216.148 C 166.791 215.616,165.920 214.840,165.697 214.424 C 165.465 213.991,164.643 213.545,163.783 213.386 C 162.954 213.232,161.108 212.347,159.681 211.420 C 158.253 210.493,156.221 209.206,155.165 208.560 C 154.109 207.914,152.735 206.981,152.113 206.487 C 150.388 205.116,147.353 205.227,145.623 206.723 C 139.105 212.361,123.904 210.859,116.638 203.858 C 112.495 199.866,108.799 189.354,109.737 184.232 C 112.051 171.601,116.999 164.781,124.943 163.275 C 126.045 163.066,127.476 162.621,128.124 162.286 C 129.446 161.602,133.185 161.493,135.329 162.075 C 136.098 162.284,137.894 162.744,139.321 163.097 C 144.166 164.297,145.157 164.819,148.229 167.788 C 153.138 172.531,156.088 178.794,156.088 184.471 C 156.088 186.779,156.234 187.338,157.110 188.379 C 158.270 189.758,166.292 195.193,168.568 196.143 C 169.395 196.488,170.181 197.056,170.315 197.406 C 170.449 197.755,171.479 198.506,172.605 199.073 C 173.730 199.641,175.650 200.863,176.870 201.788 C 179.747 203.969,181.099 204.251,182.467 202.954 C 184.944 200.605,195.380 199.103,200.414 200.371 C 203.360 201.113,204.135 200.844,207.186 198.015 C 210.247 195.177,214.263 191.696,219.734 187.137 C 221.915 185.319,224.656 182.979,225.826 181.936 C 226.996 180.893,228.134 180.040,228.356 180.040 C 228.578 180.040,229.789 179.033,231.046 177.801 C 232.304 176.570,233.976 175.130,234.762 174.600 C 235.548 174.070,236.801 172.822,237.547 171.827 C 238.293 170.831,239.491 169.568,240.210 169.020 C 242.191 167.509,242.715 166.149,242.715 162.520 C 242.715 160.766,242.967 158.197,243.276 156.811 C 243.584 155.425,243.953 153.451,244.094 152.424 C 244.337 150.662,245.813 148.019,248.694 144.187 C 250.638 141.601,255.711 138.584,260.911 136.919 C 262.998 136.252,273.050 136.664,274.651 137.483 M266.490 151.620 C 257.289 152.749,255.266 165.597,263.673 169.520 C 271.001 172.940,279.719 164.781,275.891 158.084 C 275.452 157.315,274.819 156.122,274.485 155.433 C 274.109 154.657,273.388 154.008,272.594 153.731 C 271.887 153.485,271.008 153.011,270.640 152.678 C 269.776 151.896,267.978 151.438,266.490 151.620 M269.656 153.065 C 270.442 153.598,271.591 154.146,272.211 154.282 C 273.075 154.471,273.456 154.887,273.844 156.063 C 274.123 156.907,274.777 158.094,275.299 158.701 C 276.372 159.950,276.617 162.842,275.726 163.744 C 275.440 164.034,274.768 165.053,274.234 166.007 C 271.886 170.202,265.048 170.494,261.279 166.561 C 259.007 164.190,258.413 160.727,259.844 158.195 C 260.313 157.366,260.896 156.238,261.139 155.689 C 262.245 153.192,267.471 151.582,269.656 153.065 M130.938 177.512 C 125.946 179.212,122.530 184.901,124.367 188.454 C 127.938 195.358,136.055 196.531,139.807 190.684 C 143.975 184.189,137.887 175.147,130.938 177.512 M136.702 178.904 C 140.225 180.509,140.963 185.502,138.483 190.946 C 137.010 194.180,129.612 193.971,126.887 190.618 C 124.070 187.153,123.898 185.697,125.943 182.616 C 128.613 178.593,132.829 177.139,136.702 178.904 M142.216 214.403 C 142.690 214.680,143.138 214.680,143.613 214.403 C 144.183 214.071,144.054 213.996,142.914 213.996 C 141.774 213.996,141.646 214.071,142.216 214.403 M190.889 215.686 C 189.928 215.956,188.979 216.525,188.748 216.968 C 188.519 217.406,187.810 218.214,187.172 218.762 C 184.603 220.972,184.814 226.576,187.578 229.539 C 193.088 235.449,202.595 231.571,202.595 223.414 C 202.595 217.164,197.527 213.819,190.889 215.686 M199.652 218.034 C 202.046 220.463,202.570 223.468,201.166 226.730 C 200.690 227.837,200.168 228.743,200.005 228.743 C 199.843 228.743,199.279 229.173,198.753 229.699 C 196.978 231.474,189.621 231.935,189.621 230.272 C 189.621 230.072,188.909 229.211,188.039 228.358 C 185.575 225.943,185.486 220.450,187.896 219.534 C 188.417 219.336,188.941 218.857,189.061 218.469 C 189.722 216.333,190.608 215.980,195.017 216.099 C 197.786 216.173,197.839 216.195,199.652 218.034 M251.098 267.921 C 246.731 268.926,244.606 273.226,245.764 278.713 L 246.410 281.777 248.854 283.252 C 253.878 286.285,257.641 285.313,261.176 280.069 C 265.163 274.154,258.566 266.201,251.098 267.921 M257.404 269.561 C 261.141 271.812,262.323 275.508,260.500 279.235 C 259.907 280.446,259.290 281.437,259.128 281.437 C 258.966 281.437,258.474 281.772,258.034 282.182 C 255.931 284.141,253.856 284.320,250.585 282.823 C 248.440 281.840,247.647 280.979,248.146 280.171 C 248.281 279.953,247.899 279.262,247.298 278.635 C 242.470 273.596,251.156 265.797,257.404 269.561 " stroke="none" fill="#062c51" fill-rule="evenodd"></path></g></svg>